<svg id="icons" enable-background="new 0 0 64 64" height="512" viewBox="0 0 64 64" width="512" xmlns="http://www.w3.org/2000/svg"><g><g><path d="m59 11h-27-27-4v4 7 7 6 7 7 4h4 27 27 4v-4-7-7.01-5.99-7-7-4z" fill="#a0d468"/></g><g><path d="m63 54h-62c-.553 0-1-.447-1-1v-42c0-.553.447-1 1-1h62c.553 0 1 .447 1 1v42c0 .553-.447 1-1 1zm-61-2h60v-40h-60z" fill="#a0d468"/></g><g><path d="m32 54c-.553 0-1-.447-1-1v-42c0-.553.447-1 1-1s1 .447 1 1v42c0 .553-.447 1-1 1z" fill="#e6e9ed"/></g><g><path d="m32 39c-3.859 0-7-3.141-7-7s3.141-7 7-7 7 3.141 7 7-3.141 7-7 7zm0-12c-2.758 0-5 2.243-5 5s2.242 5 5 5c2.756 0 5-2.243 5-5s-2.244-5-5-5z" fill="#e6e9ed"/></g><g fill="#e6e9ed"><g><path d="m61 9.999h-2c0 2.757 2.244 5 5 5v-2c-1.654 0-3-1.346-3-3z"/><path d="m59 54.001h2c0-1.654 1.346-3 3-3v-2c-2.756 0-5 2.243-5 5z"/><path d="m64 21h-8c-.553 0-1 .447-1 1v3.095c-2.441 1.422-3.998 4.055-3.998 6.903s1.557 5.482 3.998 6.903v3.097c0 .553.447 1 1 1h8zm-9 15.463c-1.246-1.124-1.998-2.745-1.998-4.465 0-1.719.752-3.34 1.998-4.464zm8.998-2.466h-1v-3.998h1zm-2-5.998c-.553 0-1 .447-1 1v5.998c0 .553.447 1 1 1h2v5.001h-6.998v-17.998h6.998v4.999z"/></g><g><path d="m3 9.999h2c0 2.757-2.244 5-5 5v-2c1.654 0 3-1.346 3-3z"/><path d="m5 54.001h-2c0-1.654-1.346-3-3-3v-2c2.756 0 5 2.243 5 5z"/><path d="m0 42.998h8c.553 0 1-.447 1-1v-3.097c2.441-1.421 3.998-4.055 3.998-6.903s-1.557-5.481-3.998-6.903v-3.095c0-.553-.447-1-1-1h-8zm9-15.464c1.246 1.124 1.998 2.745 1.998 4.464 0 1.72-.752 3.341-1.998 4.465zm-8.998 2.465h1v3.998h-1zm0-2v-4.999h6.998v17.998h-6.998v-5.001h2c.553 0 1-.447 1-1v-5.998c0-.553-.447-1-1-1z"/></g></g></g></svg>